<svg width="28" height="28" viewBox="0 0 28 28" fill="none" xmlns="http://www.w3.org/2000/svg">
<g clip-path="url(#clip0)">
<path d="M22.7843 8.36716H12.6824L10.6729 5.97892C10.6053 5.89767 10.5041 5.8521 10.3984 5.85539H2.24824C1.00388 5.86445 0 6.87574 0 8.1201V22.8091C0.0015098 24.0577 1.01335 25.0696 2.26196 25.0711H22.7843C24.0329 25.0696 25.0448 24.0577 25.0463 22.8091V10.6291C25.0448 9.38051 24.0329 8.36867 22.7843 8.36716Z" fill="url(#paint0_linear)"/>
<path d="M25.7538 5.44064H15.6491L13.6397 3.05241C13.5721 2.97115 13.4708 2.92558 13.3652 2.92888H5.21772C4.08866 2.93073 3.13392 3.76483 2.98047 4.88339H10.4114C10.8011 4.88243 11.1711 5.05441 11.4216 5.3528L13.1373 7.39241H22.7864C24.571 7.39543 26.0171 8.84148 26.0201 10.6261V22.1226C27.1516 21.9814 28.0011 21.0202 28.002 19.8799V7.69986C27.9991 6.45763 26.996 5.4497 25.7538 5.44064Z" fill="url(#paint1_linear)"/>
</g>
<defs>
<linearGradient id="paint0_linear" x1="25.4756" y1="-3.91284" x2="-31.0712" y2="21.3571" gradientUnits="userSpaceOnUse">
<stop stop-color="#8E1FE6"/>
<stop offset="1" stop-color="#531FE6"/>
</linearGradient>
<linearGradient id="paint1_linear" x1="28.431" y1="-6.82819" x2="-28.0571" y2="18.4195" gradientUnits="userSpaceOnUse">
<stop stop-color="#8E1FE6"/>
<stop offset="1" stop-color="#531FE6"/>
</linearGradient>
<clipPath id="clip0">
<rect width="28" height="28" fill="white"/>
</clipPath>
</defs>
</svg>
