<?xml version="1.0" encoding="utf-8"?>
<!-- Generator: Adobe Illustrator 24.0.1, SVG Export Plug-In . SVG Version: 6.00 Build 0)  -->
<svg version="1.1" id="Слой_1" xmlns="http://www.w3.org/2000/svg" xmlns:xlink="http://www.w3.org/1999/xlink" x="0px" y="0px"
	 viewBox="0 0 2500 350" style="enable-background:new 0 0 2500 350;" xml:space="preserve">
<style type="text/css">
	.st0{fill:#836ADD;}
</style>
<g>
	<g>
		<g>
			<path class="st0" d="M163.9,26.5h80.4l75.8,197.9l75.8-197.9h80L357.1,324h-74L163.9,26.5z"/>
		</g>
		<g>
			<path class="st0" d="M922.9,311.6c-24.5-12.5-43.5-30.4-56.8-53.8c-13.3-23.4-20-50.9-20-82.4c0-31.5,6.7-58.9,20-82.3
				c13.3-23.4,32.3-41.4,56.8-54c24.5-12.6,53-18.9,85.3-18.9c21.3,0,40.3,2.1,57,6.4c16.7,4.3,32.2,10.9,46.4,20V118
				c-12.5-9.9-26.6-17.2-42.3-21.7c-15.7-4.5-33.8-6.8-54.3-6.8c-29.2,0-51.8,7.6-67.7,22.8c-15.9,15.2-23.8,36.2-23.8,63.2
				c0,27,8,48.1,24,63.4c16,15.3,38.5,23,67.5,23c20.4,0,38.7-2.4,54.9-7.2c16.2-4.8,31.2-12.5,45.1-23v71.1
				c-27,18.4-62.6,27.7-106.8,27.7C975.9,330.4,947.4,324.1,922.9,311.6z"/>
		</g>
		<g>
			<path class="st0" d="M1266.1,26.5h74.1L1458.9,324h-77l-23.8-61.3h-109.8l-23.8,61.3h-77.5L1266.1,26.5z M1339.3,204.8l-36.2-100
				l-36.6,100H1339.3z"/>
		</g>
		<g>
			<path class="st0" d="M1525.7,89.9h-83.8V26.5h243.4v63.4H1601V324h-75.3V89.9z"/>
		</g>
		<g>
			<path class="st0" d="M1785.1,310.8c-24.3-13-43.4-31.3-57.5-54.7c-14-23.4-21.1-50.3-21.1-80.6c0-30.4,7-57.3,21.1-80.9
				c14-23.5,33.2-41.8,57.5-54.9c24.3-13,51.4-19.6,81.5-19.6c29.8,0,56.8,6.5,81.1,19.6c24.3,13.1,43.3,31.4,57.2,54.9
				c13.9,23.6,20.9,50.5,20.9,80.9c0,30.4-7,57.2-20.9,80.6c-13.9,23.4-33,41.6-57.2,54.7c-24.3,13.1-51.3,19.6-81.1,19.6
				C1836.5,330.4,1809.4,323.8,1785.1,310.8z M1907.9,249.5c12.5-6.8,22.4-16.6,29.8-29.4c7.4-12.8,11.1-27.7,11.1-44.7
				c0-17-3.6-31.8-10.9-44.5c-7.2-12.6-17.1-22.4-29.6-29.4c-12.5-6.9-26.4-10.4-41.7-10.4c-15.6,0-29.7,3.5-42.1,10.4
				c-12.5,7-22.3,16.7-29.6,29.4c-7.2,12.6-10.9,27.5-10.9,44.5c0,17,3.6,31.9,10.9,44.7c7.2,12.8,17.2,22.6,29.8,29.4
				c12.6,6.8,26.6,10.2,41.9,10.2C1881.6,259.7,1895.4,256.3,1907.9,249.5z"/>
		</g>
		<g>
			<path class="st0" d="M2076.8,26.5h74.5l109.4,177v-177h75.3V324h-74.1l-109.8-177.5V324h-75.3V26.5z"/>
		</g>
	</g>
	<g>
		<g>
			<path class="st0" d="M499.6,198.6H801c0,0.2,0,0.3-0.1,0.5c-11.2,74.3-74.4,131.3-150.7,131.3s-139.5-57-150.7-131.3
				C499.6,198.9,499.6,198.8,499.6,198.6z"/>
		</g>
		<g>
			<path class="st0" d="M801.2,153.3H499.4c0-0.2,0.1-0.4,0.1-0.6c10.8-74.8,74.2-132.2,150.8-132.2s140,57.4,150.8,132.2
				C801.1,152.9,801.2,153.1,801.2,153.3z"/>
		</g>
	</g>
</g>
</svg>
